<svg preserveAspectRatio="none" width="100%" height="100%" overflow="visible" style="display: block;" viewBox="0 0 142.598 114.803" fill="none" xmlns="http://www.w3.org/2000/svg">
<g id="jumping">
<g id="Group 2865">
<path id="Vector 764" d="M116.222 59.7084L111.407 58.5121C109.63 58.0709 107.863 59.2654 107.61 61.0782C107.388 62.6669 108.422 64.1602 109.987 64.5122L115.682 65.7926C118.071 66.3298 120.576 65.9157 122.665 64.638L135.545 56.7609C136.373 56.2543 136.913 55.3852 136.999 54.4179L137.034 54.0256C137.144 52.799 136.373 51.6654 135.192 51.3164C134.466 51.1022 133.684 51.2162 133.05 51.6284L122.158 58.7106C120.404 59.8516 118.254 60.213 116.222 59.7084Z" fill="var(--fill-0, #2196F3)"/>
<path id="Vector 765" d="M36.755 58.5982L44.5717 57.2104C46.2494 56.9126 47.8389 58.0672 48.0744 59.7548C48.3111 61.4512 47.0846 63.0022 45.3793 63.1629L34.8853 64.152C31.0434 64.5141 27.2376 63.1621 24.4853 60.4573L19.7612 55.815C19.1825 55.2463 18.8251 54.4903 18.753 53.6822L18.6746 52.8046C18.5754 51.694 19.2734 50.6676 20.3427 50.3517C21.1654 50.1086 22.0552 50.3351 22.6616 50.942L27.3545 55.6384C29.8161 58.1018 33.3261 59.207 36.755 58.5982Z" fill="var(--fill-0, #2196F3)"/>
<path id="Vector 771" d="M57.6704 98.6722C58.4383 97.9043 60.5413 94.8903 61.5461 81.4437H66.2829C65.7566 86.0193 64.5891 95.8708 64.1298 98.6722C63.6704 101.474 63.6306 108.057 62.373 108.337L52.4069 114.803C51.5114 114.523 48.503 111.884 48.5029 109.923C48.5029 108.152 49.7584 106.703 50.5247 105.322C51.4287 103.694 56.9328 99.4098 57.6704 98.6722Z" fill="var(--fill-0, #2196F3)"/>
<path id="Vector 772" d="M89.8375 96.7796C89.12 96.0621 87.0511 92.9977 86.0759 79.5511H81.4784C81.9892 84.1267 83.1224 93.9782 83.5682 96.7796C84.014 99.581 84.0527 106.164 85.2733 106.444L94.9401 111.849C95.8093 111.569 97.8408 109.604 97.8408 107.643C97.8408 105.871 96.8756 104.502 95.8103 103.437C94.7266 102.353 90.404 97.346 89.8375 96.7796Z" fill="var(--fill-0, #2196F3)"/>
<path id="Vector 766" d="M133.916 56.4599L132.476 55.1981C130.894 53.8123 130.577 51.4717 131.734 49.7155C133.052 47.7152 135.771 47.2157 137.713 48.6171L139.266 49.7375C141.169 51.1098 141.62 53.7535 140.281 55.6796C138.817 57.7863 135.846 58.1505 133.916 56.4599Z" fill="var(--fill-0, #2196F3)"/>
<path id="Vector 767" d="M21.4781 55.3426L23.0211 54.2087C24.7158 52.9634 25.2315 50.6585 24.2292 48.8097C23.0876 46.7039 20.4216 45.9736 18.3662 47.2036L16.7231 48.187C14.7103 49.3915 14.034 51.9868 15.203 54.0204C16.4816 56.2446 19.4108 56.8618 21.4781 55.3426Z" fill="var(--fill-0, #2196F3)"/>
<path id="+" d="M85.9272 6.85585C85.8168 6.5225 85.9974 6.16271 86.3308 6.05223L88.517 5.32766C88.8504 5.21718 89.0311 4.85738 88.9206 4.52403L88.3374 2.76438C88.2269 2.43103 87.8671 2.25036 87.5338 2.36084L85.3475 3.08541C85.0142 3.19589 84.6544 3.01521 84.5439 2.68186L83.8193 0.49561C83.7088 0.162259 83.349 -0.0184131 83.0157 0.0920663L81.2366 0.681679C80.9033 0.792159 80.7226 1.15195 80.8331 1.4853L81.5512 3.65217C81.6617 3.98552 81.4811 4.34531 81.1477 4.45579L78.9808 5.17394C78.6475 5.28442 78.4668 5.64421 78.5773 5.97756L79.1669 7.75661C79.2774 8.08996 79.6372 8.27063 79.9705 8.16015L82.1374 7.442C82.4707 7.33153 82.8305 7.5122 82.941 7.84555L83.6656 10.0318C83.7761 10.3652 84.1359 10.5458 84.4692 10.4353L86.2483 9.84573C86.5816 9.73525 86.7623 9.37546 86.6518 9.04211L85.9272 6.85585Z" fill="var(--fill-0, #EEA63B)"/>
<g id="Group 2864">
<path id="Line 567" d="M23.2969 17.0149L17.7746 15.8284" stroke="var(--stroke-0, #DE68CB)" stroke-width="2.44204" stroke-linecap="round"/>
<path id="Line 568" d="M24.5 12.0413L20.3544 7.68547" stroke="var(--stroke-0, #DE68CB)" stroke-width="2.44204" stroke-linecap="round"/>
<path id="Line 569" d="M29.2705 10.6224L27.4873 5.29386" stroke="var(--stroke-0, #DE68CB)" stroke-width="2.44204" stroke-linecap="round"/>
</g>
<circle id="Ellipse 1823" cx="76.2772" cy="54.1862" r="35.6561" fill="var(--fill-0, #8FCAF9)"/>
<circle id="Ellipse 1824" cx="124.716" cy="6.40182" r="4.66126" transform="rotate(12.5048 124.716 6.40182)" stroke="var(--stroke-0, #71C597)" stroke-width="3.47838"/>
<rect id="Rectangle 6674" x="114.977" y="16.0271" width="23.3437" height="6.834" rx="1.42802" transform="rotate(55.8245 114.977 16.0271)" fill="var(--fill-0, #C7F1EC)"/>
<rect id="Rectangle 6675" x="29.8418" y="23.427" width="9.82509" height="9.82509" transform="rotate(26.3523 29.8418 23.427)" fill="var(--fill-0, #E57E4D)"/>
</g>
<g id="Group 2866">
<ellipse id="Ellipse 1644" cx="2.9912" cy="2.57621" rx="2.9912" ry="2.57621" transform="matrix(-0.99997 -0.00771222 -0.00771222 0.99997 88.8212 37.1067)" fill="var(--fill-0, #5E4BB2)"/>
<ellipse id="Ellipse 1645" cx="2.9912" cy="2.57621" rx="2.9912" ry="2.57621" transform="matrix(-0.99997 -0.00771222 -0.00771222 0.99997 71.2743 36.9718)" fill="var(--fill-0, #5E4BB2)"/>
</g>
<path id="Vector 764_2" d="M77.7221 45.435L80.3241 44.7978C81.2675 44.5668 82.1964 45.2261 82.2896 46.1929C82.3358 46.6714 82.1635 47.1452 81.8207 47.4823L81.1528 48.139C80.6528 48.6307 80.0186 48.9637 79.33 49.0961L78.0524 49.3418C77.3532 49.4763 76.6364 49.4927 75.9318 49.3904L75.2292 49.2884C74.4854 49.1804 73.788 48.8621 73.219 48.3711L72.1434 47.4428C71.7007 47.0607 71.5051 46.4653 71.6349 45.8951C71.8384 45.0014 72.7567 44.4675 73.634 44.7328L75.7839 45.3831C76.4137 45.5735 77.083 45.5914 77.7221 45.435Z" fill="var(--fill-0, #5E4BB2)"/>
</g>
</svg>
