<svg preserveAspectRatio="none" width="100%" height="100%" overflow="visible" style="display: block;" viewBox="0 0 108.819 282.703" fill="none" xmlns="http://www.w3.org/2000/svg">
<path id="Mask" d="M85.494 282.674C85.0524 282.654 70.5986 282.194 53.3745 281.651C36.1504 281.109 21.1652 280.62 20.0741 280.564C15.9513 280.352 13.5036 279.931 11.2957 279.054C6.78312 277.262 3.31753 273.404 1.59728 268.258C0.656353 265.443 0.264355 262.807 0.0955869 258.159C-0.0311416 254.669 -0.0322106 30.3459 0.0944837 26.6578C0.228614 22.7532 0.477555 20.7203 1.13451 18.1647C1.92334 15.0961 3.12769 12.6179 4.91713 10.3812C7.79686 6.78169 11.6693 4.75545 16.9094 4.1063C19.3981 3.79799 18.8665 3.83165 39.3931 2.6826C47.2647 2.24195 60.9745 1.47274 69.8594 0.973242C90.5288 -0.188787 92.1868 -0.22497 95.3756 0.416363C100.249 1.39643 104.021 4.39049 106.322 9.10461C107.553 11.6265 108.277 14.6144 108.657 18.7417C108.811 20.4171 108.889 257.09 108.737 261.008C108.633 263.688 108.472 265.53 108.214 267.007C107.382 271.773 105.568 275.472 102.722 278.206C100.204 280.625 97.2981 281.954 93.3349 282.499C92.2566 282.648 87.319 282.758 85.494 282.674ZM54.0922 18.2236C61.9269 17.8258 65.4293 17.6147 65.9013 17.5117C68.056 17.0414 69.6103 15.4702 70.1901 13.1765C70.4202 12.2658 70.4384 10.8817 70.2318 10.0048C69.8092 8.21188 68.63 6.8213 67.0635 6.26862C66.0532 5.91214 65.8756 5.91602 54.1103 6.55224C41.6538 7.22583 41.7682 7.21836 40.9153 7.41283C37.419 8.20996 35.6012 12.6214 37.3236 16.1293C37.9601 17.4255 38.9731 18.28 40.3086 18.6472C41.0669 18.8556 42.5203 18.811 54.0922 18.2236Z" fill="var(--fill-0, black)"/>
</svg>
