<svg preserveAspectRatio="none" width="100%" height="100%" overflow="visible" style="display: block;" viewBox="0 0 39.3177 39.377" fill="none" xmlns="http://www.w3.org/2000/svg">
<g id="Group 3869">
<path id="Vector" opacity="0.51" d="M12.8435 27.3816H12.4453C11.3543 27.4232 10.2709 27.5814 9.2136 27.8536C7.50378 28.4046 5.91391 29.2744 4.52807 30.4169L4.0836 30.3058C3.53574 30.1332 3.0151 29.884 2.53719 29.5655C1.52111 27.9397 0.829341 26.1329 0.5 24.2446C2.54411 23.5575 4.73758 23.4435 6.84198 23.915C8.94638 24.3865 10.8812 25.4254 12.4361 26.9189C12.5842 27.0577 12.7046 27.2058 12.8342 27.3446" fill="var(--fill-0, #845EC2)" fill-opacity="0.48"/>
<path id="Vector_2" opacity="0.51" d="M38.8925 23.6519C38.6334 24.9196 38.252 26.1592 37.7536 27.3534C36.687 26.5813 35.6696 25.7438 34.707 24.8456L34.9941 24.642C35.1226 24.5551 35.2555 24.4748 35.3923 24.4014C36.4627 23.8186 37.6758 23.5491 38.8925 23.6241" fill="var(--fill-0, #845EC2)" fill-opacity="0.48"/>
<path id="Vector_3" opacity="0.51" d="M34.7055 24.8755C33.6388 25.809 32.6792 26.858 31.8442 28.0033C30.7087 29.3925 29.4265 30.6553 28.0198 31.7696C27.7143 32.0102 27.3994 32.2415 27.0939 32.4543C26.9473 32.5619 26.7924 32.6578 26.6309 32.7412C25.2518 32.2859 23.9333 31.6644 22.7046 30.8904C21.9175 30.4092 21.1768 29.8725 20.3897 29.4006C18.2387 28.1444 15.8055 27.4506 13.3151 27.3833H12.8613C13.0095 27.2537 13.1669 27.1056 13.3151 26.9576C15.1671 24.5886 18.4914 19.7674 20.5008 17.5187C23.0658 14.6223 26.9272 14.4557 29.0477 16.5934C30.3959 17.9655 31.5403 19.5236 32.4461 21.2202C33.0151 22.3942 33.6876 23.5153 34.4555 24.5701C34.5375 24.6754 34.6273 24.7744 34.724 24.8662" fill="var(--fill-0, #845EC2)" fill-opacity="0.48"/>
<path id="Vector_4" opacity="0.95" d="M37.753 27.3813C36.7368 29.6682 35.3158 31.7529 33.5582 33.5351C33.4008 33.6924 33.2434 33.8497 33.0767 33.9885C31.0329 33.9295 29.0098 33.5613 27.0763 32.8966L26.6133 32.7392C26.7749 32.6559 26.9297 32.5599 27.0763 32.4524C27.4004 32.2395 27.7152 32.0082 28.0023 31.7676C29.4089 30.6533 30.6911 29.3906 31.8266 28.0013C32.6616 26.8561 33.6212 25.8071 34.6879 24.8735C35.6505 25.7717 36.6679 26.6093 37.7345 27.3813" fill="var(--fill-0, #845EC2)" fill-opacity="0.66"/>
<path id="Vector_5" opacity="0.95" d="M4.52909 30.4254C4.38093 30.5365 4.23277 30.629 4.08461 30.7493L3.59384 31.1658L3.39012 30.8974L2.5382 29.5648C3.01665 29.8801 3.53726 30.1262 4.08461 30.2959L4.52909 30.4069" fill="var(--fill-0, #845EC2)" fill-opacity="0.66"/>
<path id="Vector_6" opacity="0.95" d="M26.6135 32.7403C26.3543 32.8884 26.0851 33.0183 25.8078 33.1289C24.7103 33.518 23.5354 33.6386 22.3817 33.4806C19.631 33.1815 17.0658 31.9504 15.1126 29.9919C14.2977 29.159 13.6218 28.2337 12.8439 27.3823H13.2977C15.7881 27.4497 18.2213 28.1435 20.3723 29.3996C21.1594 29.8716 21.9002 30.4083 22.6872 30.8895C23.9159 31.6635 25.2344 32.285 26.6135 32.7403Z" fill="var(--fill-0, #845EC2)" fill-opacity="0.66"/>
<path id="Vector_7" opacity="0.95" d="M12.843 27.3816C11.7129 28.4978 10.3634 29.3675 8.8797 29.9357C7.5116 30.5338 5.99456 30.7047 4.52753 30.4261C5.91337 29.2837 7.50324 28.4139 9.21306 27.8628C10.2704 27.5907 11.3538 27.4325 12.4448 27.3909H12.843" fill="var(--fill-0, #845EC2)" fill-opacity="0.66"/>
<path id="Vector_8" d="M33.0773 33.9895C31.041 35.9205 28.614 37.3927 25.96 38.3067C23.306 39.2206 20.4867 39.5551 17.6923 39.2876C14.8979 39.0201 12.1935 38.1568 9.76135 36.756C7.32923 35.3552 5.22603 33.4493 3.59363 31.1671L4.0844 30.7507C4.23256 30.6304 4.38072 30.5379 4.52888 30.4268C5.99591 30.7054 7.51295 30.5345 8.88105 29.9364C10.3647 29.3682 11.7143 28.4985 12.8443 27.3823C13.6221 28.2337 14.2981 29.159 15.113 29.9919C17.0661 31.9504 19.6314 33.1815 22.382 33.4806C23.5358 33.6386 24.7107 33.518 25.8082 33.1289C26.0855 33.0183 26.3547 32.8884 26.6138 32.7403L27.0768 32.8976C29.0103 33.5623 31.0334 33.9305 33.0773 33.9895Z" fill="var(--fill-0, #845EC2)"/>
<g id="Vector_9">
</g>
<path id="Vector_10" d="M2.73168 20.6729C1.86931 20.9812 0.969049 21.1711 0.0555596 21.2374C0.0510196 21.1542 0.0510196 21.0708 0.0555596 20.9876C0.0555596 20.7655 0.0555596 20.5434 0 20.3306C0 20.1085 0 19.8679 0 19.6458C0 14.4354 2.07119 9.43841 5.75794 5.75411C9.44469 2.06982 14.445 0 19.6588 0C24.8727 0 29.873 2.06982 33.5598 5.75411C37.2465 9.43841 39.3177 14.4354 39.3177 19.6458V20.2843C39.3177 20.5249 39.2714 20.7655 39.2529 21.0061C39.2574 21.0893 39.2574 21.1727 39.2529 21.2559C38.3279 21.1915 37.4156 21.0048 36.5397 20.7007C36.5953 20.1917 36.6045 19.6735 36.6045 19.6735C36.6082 15.1847 34.8274 10.8783 31.6538 7.70157C30.0824 6.12864 28.2164 4.88041 26.1622 4.02816C24.1081 3.1759 21.9061 2.73632 19.682 2.73449C17.4579 2.73267 15.2552 3.16865 13.1996 4.01753C11.1441 4.86642 9.27605 6.11158 7.70207 7.68194C4.52327 10.8534 2.73537 15.1569 2.73168 19.6458C2.73168 19.6458 2.73168 20.1455 2.73168 20.6729Z" fill="var(--fill-0, #845EC2)"/>
</g>
</svg>
