<svg preserveAspectRatio="none" width="100%" height="100%" overflow="visible" style="display: block;" viewBox="0 0 70.8785 65.8809" fill="none" xmlns="http://www.w3.org/2000/svg">
<g id="Group 3442">
<path id="Vector 962" d="M7.24368 59.2215C7.6558 59.5992 9.77755 59.456 16.1795 56.1035L17.5216 58.2584C15.2909 59.3153 10.4783 61.5753 9.07374 62.16C7.66916 62.7448 4.66292 64.5918 4.17918 64.099L0.528745 58.2375C0.402466 57.7507 0.828393 56.8726 1.7205 56.317C2.52652 55.815 4.70164 55.7077 5.14899 56.426C5.59635 57.1443 6.83156 58.8437 7.24368 59.2215Z" fill="var(--fill-0, #5DB2F6)"/>
<path id="Vector 963" d="M63.6348 59.2215C63.2227 59.5992 61.1009 59.456 54.6989 56.1034L53.3569 58.2584C55.5876 59.3153 60.4002 61.5753 61.8047 62.16C63.2093 62.7448 66.2156 64.5918 66.6993 64.099L70.3497 58.2375C70.476 57.7507 70.0501 56.8726 69.158 56.317C68.352 55.815 66.1768 55.7077 65.7295 56.426C65.2821 57.1443 64.0469 58.8437 63.6348 59.2215Z" fill="var(--fill-0, #5DB2F6)"/>
<path id="Polygon 62" d="M34.5361 0.654095C35.0729 0.264069 35.7998 0.264068 36.3367 0.654094L65.5054 21.8464C66.0422 22.2365 66.2669 22.9278 66.0618 23.5589L54.9203 57.8488C54.7153 58.4799 54.1272 58.9071 53.4637 58.9071H17.4091C16.7455 58.9071 16.1575 58.4799 15.9524 57.8488L4.81094 23.5589C4.60589 22.9278 4.83052 22.2365 5.36734 21.8464L34.5361 0.654095Z" fill="var(--fill-0, #62B8FF)"/>
<g id="Group 3183">
<g id="Group 2683">
<ellipse id="Ellipse 1644" cx="29.8153" cy="25.2307" rx="2.07922" ry="1.79075" transform="rotate(0.226673 29.8153 25.2307)" fill="var(--fill-0, #5E4BB2)"/>
<ellipse id="Ellipse 1645" cx="42.0187" cy="25.2797" rx="2.07922" ry="1.79075" transform="rotate(0.226673 42.0187 25.2797)" fill="var(--fill-0, #5E4BB2)"/>
</g>
<path id="Vector 40" d="M35.3816 29.312L33.5487 28.8404C32.9104 28.6762 32.2749 29.1162 32.204 29.7715C32.1663 30.1199 32.2998 30.465 32.5622 30.6974L33.1324 31.2025C33.442 31.4767 33.8136 31.6717 34.2152 31.7708L35.0729 31.9823C35.5883 32.1093 36.1229 32.1386 36.649 32.0684L37.0831 32.0106C37.601 31.9416 38.0883 31.726 38.4877 31.3893L39.2428 30.7528C39.5537 30.4908 39.6945 30.0786 39.6089 29.6812C39.4747 29.0584 38.8407 28.6798 38.2288 28.8571L36.7292 29.2916C36.2899 29.4189 35.8246 29.4259 35.3816 29.312Z" fill="var(--fill-0, #5E4BB2)"/>
</g>
<g id="Group 3184">
<circle id="Ellipse 1843" cx="25.54" cy="23.7981" r="8.03216" stroke="var(--stroke-0, #473776)" stroke-width="0.882443"/>
<circle id="Ellipse 1844" cx="46.4346" cy="23.4365" r="8.03216" stroke="var(--stroke-0, #473776)" stroke-width="0.882443"/>
<line id="Line 573" x1="33.6537" y1="24.8864" x2="38.339" y2="24.8864" stroke="var(--stroke-0, #473776)" stroke-width="0.695175"/>
</g>
<g id="Group 3185">
<path id="Rectangle 7092" d="M12.433 27.6543L35.9388 35.5351V64.155L12.433 56.2742V27.6543Z" fill="var(--fill-0, #E7ECFA)"/>
<path id="Rectangle 7093" d="M59.4466 27.6543L35.9408 35.5351V64.155L59.4466 56.2742V27.6543Z" fill="var(--fill-0, #E7ECFA)"/>
<path id="Rectangle 7089" d="M9.76199 29.3796L33.2678 37.2604V65.8803L9.76199 57.9995V29.3796Z" fill="var(--fill-0, #986FE0)"/>
<path id="Rectangle 7090" d="M62.1183 29.3802L38.6125 37.261V65.8809L62.1183 58.0001V29.3802Z" fill="var(--fill-0, #986FE0)"/>
<rect id="Rectangle 7091" x="33.2698" y="37.407" width="5.34101" height="28.4721" fill="var(--fill-0, #845EC2)"/>
</g>
<path id="Vector 964" d="M64.4787 43.6774L64.0056 42.2593C63.4861 40.7019 61.8969 39.7668 60.2832 40.0689C58.4452 40.413 57.2641 42.2191 57.686 44.0409L58.0232 45.4972C58.4363 47.2812 60.2028 48.4051 61.9937 48.0234C63.9526 47.606 65.1125 45.5773 64.4787 43.6774Z" fill="var(--fill-0, #5DB2F6)"/>
<path id="Vector 965" d="M6.57848 43.6774L7.05156 42.2593C7.57113 40.7019 9.16026 39.7668 10.774 40.0689C12.612 40.413 13.793 42.2191 13.3712 44.0409L13.034 45.4972C12.6209 47.2812 10.8544 48.4051 9.06344 48.0234C7.1046 47.606 5.94464 45.5773 6.57848 43.6774Z" fill="var(--fill-0, #5DB2F6)"/>
</g>
</svg>
