<svg preserveAspectRatio="none" width="100%" height="100%" overflow="visible" style="display: block;" viewBox="0 0 78.1525 38.445" fill="none" xmlns="http://www.w3.org/2000/svg">
<g id="Frame 26774">
<path id="+" d="M67.8215 14.7854C67.516 14.5744 67.4394 14.1557 67.6504 13.8502L68.5954 12.4816C68.8064 12.176 68.7298 11.7573 68.4242 11.5463L67.3668 10.8161C67.0613 10.6051 66.6425 10.6817 66.4315 10.9873L65.4864 12.3559C65.2755 12.6614 64.8567 12.738 64.5512 12.5271L63.1826 11.582C62.8771 11.371 62.4583 11.4476 62.2473 11.7532L61.5073 12.8247C61.2963 13.1303 61.373 13.549 61.6785 13.76L63.033 14.6953C63.3385 14.9063 63.4152 15.3251 63.2042 15.6306L62.2688 16.985C62.0579 17.2906 62.1345 17.7093 62.44 17.9203L63.5116 18.6603C63.8172 18.8713 64.2359 18.7947 64.4469 18.4891L65.3822 17.1347C65.5932 16.8291 66.0119 16.7525 66.3175 16.9635L67.6861 17.9086C67.9916 18.1196 68.4103 18.0429 68.6213 17.7374L69.3613 16.6658C69.5723 16.3602 69.4957 15.9415 69.1901 15.7305L67.8215 14.7854Z" fill="var(--fill-0, #EEA63A)"/>
<path id="Polygon 74" d="M11.213 16.3208C12.0327 16.6689 12.9217 15.9992 12.8134 15.1153L11.9265 7.8825C11.8182 6.99864 10.7936 6.56355 10.0824 7.09933L4.26197 11.4838C3.55072 12.0195 3.68618 13.1244 4.50581 13.4724L11.213 16.3208Z" fill="var(--fill-0, #845EC0)"/>
<circle id="Ellipse 1645" cx="6.65431" cy="28.6985" r="3.71571" transform="rotate(-17.2089 6.65431 28.6985)" stroke="var(--stroke-0, #71C597)" stroke-width="2.94277"/>
<rect id="Rectangle 6696" x="66.1025" y="30.1901" width="8.86169" height="8.86169" rx="1.08371" transform="rotate(-40.5275 66.1025 30.1901)" fill="var(--fill-0, #DE68CB)"/>
</g>
</svg>
