<svg preserveAspectRatio="none" width="100%" height="100%" overflow="visible" style="display: block;" viewBox="0 0 92 92" fill="none" xmlns="http://www.w3.org/2000/svg">
<g id="Frame 27495" clip-path="url(#clip0_391_80)">
<path id="Ellipse 1647" d="M46.6093 57.4479C46.4499 58.9161 45.0014 60.1134 43.168 60.1062C41.335 60.0987 39.8966 58.89 39.749 57.4208L46.6093 57.4479Z" fill="var(--fill-0, #F0ECF8)" stroke="var(--stroke-0, #F0ECF8)" stroke-width="0.517507"/>
<g id="Group 3165">
<g id="Group 2683">
<ellipse id="Ellipse 1644" cx="35.1492" cy="51.4466" rx="2.77768" ry="2.39231" transform="rotate(0.226678 35.1492 51.4466)" fill="var(--fill-0, #5E4BB2)"/>
<ellipse id="Ellipse 1645" cx="51.4411" cy="51.5129" rx="2.77768" ry="2.39231" transform="rotate(0.226678 51.4411 51.5129)" fill="var(--fill-0, #5E4BB2)"/>
</g>
<path id="Vector 40" d="M42.5902 56.8972L40.1415 56.2672C39.2888 56.0478 38.4398 56.6357 38.3451 57.511C38.2947 57.9765 38.473 58.4376 38.8236 58.7481L39.5853 59.4228C39.999 59.7892 40.4954 60.0497 41.0318 60.1819L42.1777 60.4645C42.8662 60.6343 43.5804 60.6733 44.2833 60.5796L44.8632 60.5023C45.555 60.4101 46.206 60.1221 46.7397 59.6723L47.7484 58.822C48.1637 58.472 48.3518 57.9213 48.2374 57.3904C48.0582 56.5584 47.2112 56.0527 46.3938 56.2895L44.3904 56.87C43.8036 57.04 43.1819 57.0494 42.5902 56.8972Z" fill="var(--fill-0, #5E4BB2)"/>
</g>
<path id="Polygon 58" d="M62.6906 14.5711C63.2097 14.7129 63.6876 14.2395 63.5508 13.719L62.117 8.26353C61.9802 7.74305 61.3312 7.56584 60.9489 7.94455L56.9412 11.9141C56.5589 12.2928 56.7299 12.9434 57.249 13.0851L62.6906 14.5711Z" fill="var(--fill-0, #62B8FF)"/>
<path id="+" d="M23.3188 23.9429C23.1586 23.493 23.3934 22.9984 23.8433 22.8382L25.8584 22.1205C26.3083 21.9603 26.5431 21.4656 26.3829 21.0158L25.8283 19.4587C25.6681 19.0088 25.1735 18.774 24.7236 18.9343L22.7084 19.652C22.2586 19.8122 21.764 19.5774 21.6037 19.1275L20.886 17.1123C20.7258 16.6625 20.2312 16.4276 19.7813 16.5879L18.2034 17.1498C17.7535 17.3101 17.5187 17.8047 17.6789 18.2546L18.3893 20.2489C18.5495 20.6988 18.3147 21.1934 17.8648 21.3536L15.8704 22.064C15.4205 22.2242 15.1857 22.7188 15.346 23.1687L15.9079 24.7465C16.0682 25.1964 16.5628 25.4312 17.0127 25.271L19.007 24.5607C19.4569 24.4005 19.9515 24.6353 20.1117 25.0852L20.8295 27.1003C20.9897 27.5502 21.4843 27.785 21.9342 27.6248L23.512 27.0628C23.9619 26.9026 24.1967 26.408 24.0365 25.9581L23.3188 23.9429Z" fill="var(--fill-0, #EEA63B)"/>
<g id="Group 3154">
<path id="Line 567" d="M6.32135 30.58L1.74193 29.6223" stroke="var(--stroke-0, #62B8FF)" stroke-width="2.02272" stroke-linecap="round"/>
<path id="Line 568" d="M7.2972 26.4536L3.84367 22.8646" stroke="var(--stroke-0, #62B8FF)" stroke-width="2.02272" stroke-linecap="round"/>
<path id="Line 569" d="M11.2472 25.2603L9.74602 20.8549" stroke="var(--stroke-0, #62B8FF)" stroke-width="2.02272" stroke-linecap="round"/>
</g>
<circle id="Ellipse 1645_2" cx="75.4881" cy="14.4881" r="3.96594" transform="rotate(-8.15038 75.4881 14.4881)" stroke="var(--stroke-0, #71C597)" stroke-width="3.14095"/>
<path id="Vector 39" d="M61.1724 29.0111L71.9554 39.216L88.2485 22" stroke="var(--stroke-0, #5E4BB2)" stroke-width="7.51205"/>
<path id="Vector 32" d="M21.8291 53.5649C23.0973 55.2448 24.7978 55.6077 30.668 55.4209C30.4181 56.638 29.7983 59.0381 29.3183 58.902C28.7182 58.732 20.8777 57.6351 19.5251 56.6782C18.1725 55.7212 14.5442 39.0375 14.4647 38.3332C14.3853 37.6288 16.4159 37.2412 16.9806 37.0982C17.5453 36.9553 18.0722 37.2129 18.6988 37.6177C19.3253 38.0226 20.5609 51.885 21.8291 53.5649Z" fill="var(--fill-0, #D17032)"/>
<path id="Vector 33" d="M74.6054 55.0638C72.8816 56.2716 72.2086 56.6861 66.6811 54.7008C66.5441 55.9357 66.3948 58.41 66.8934 58.4284C67.5166 58.4513 73.4495 59.5877 75.031 59.0937C76.6126 58.5998 84.3601 40.8023 84.6526 40.1566C84.9451 39.5109 84.2999 37.9584 83.8066 37.6485C83.3134 37.3386 83.1381 37.2945 82.4174 37.4868C81.6966 37.6791 76.3293 53.8561 74.6054 55.0638Z" fill="var(--fill-0, #D17032)"/>
<path id="Vector 30" d="M34.5535 82.8003C35.2034 82.6192 36.4103 80.3543 37.0602 71.6575H40.1238C39.7834 74.6168 39.0283 80.9885 38.7312 82.8003C38.4342 84.6122 38.4084 88.87 37.595 89.0512H29.2617C28.6825 88.87 28.0547 87.8735 28.0547 86.6052C28.0547 85.4593 29.3324 83.1627 30.3536 83.1627C31.3748 83.1627 33.9037 82.9815 34.5535 82.8003Z" fill="var(--fill-0, #D17032)"/>
<path id="Vector 31" d="M56.3163 82.8003C55.6855 82.6192 54.5141 80.3543 53.8834 71.6575H50.9099C51.2403 74.6168 51.9731 80.9885 52.2615 82.8003C52.5498 84.6122 52.5749 88.87 53.3643 89.0512H61.4525C62.0147 88.87 62.624 87.8735 62.624 86.6052C62.624 85.4593 61.3839 83.1627 60.3927 83.1627C59.4015 83.1627 56.9471 82.9815 56.3163 82.8003Z" fill="var(--fill-0, #D17032)"/>
<path id="Polygon 1" d="M46.0823 19.9638C46.6289 19.0172 47.9952 19.0172 48.5417 19.9638L78.3701 71.6282C78.9166 72.5748 78.2335 73.7581 77.1405 73.7581H17.4836C16.3905 73.7581 15.7074 72.5748 16.2539 71.6282L46.0823 19.9638Z" fill="var(--fill-0, #EE913C)"/>
<path id="Ellipse 1647_2" d="M47.2148 56.1549C47.0709 57.4811 45.7627 58.5622 44.1067 58.5557C42.4505 58.5491 41.15 57.4578 41.0166 56.1304L47.2148 56.1549Z" fill="var(--fill-0, #F0ECF8)" stroke="var(--stroke-0, #F0ECF8)" stroke-width="0.467482"/>
<g id="Group 3165_2">
<g id="Group 2683_2">
<ellipse id="Ellipse 1644_2" cx="36.8562" cy="50.7332" rx="2.50917" ry="2.16106" transform="rotate(0.226673 36.8562 50.7332)" fill="var(--fill-0, #5E4BB2)"/>
<ellipse id="Ellipse 1645_3" cx="51.5769" cy="50.7933" rx="2.50917" ry="2.16106" transform="rotate(0.226673 51.5769 50.7933)" fill="var(--fill-0, #5E4BB2)"/>
</g>
<path id="Vector 40_2" d="M43.5813 55.6589L41.3694 55.0898C40.5991 54.8916 39.8322 55.4226 39.7466 56.2133C39.7011 56.6339 39.8622 57.0504 40.1788 57.3308L40.867 57.9403C41.2406 58.2713 41.689 58.5066 42.1736 58.6261L43.2088 58.8813C43.8307 59.0347 44.4759 59.07 45.1108 58.9853L45.6346 58.9155C46.2596 58.8322 46.8477 58.5721 47.3297 58.1657L48.241 57.3976C48.6161 57.0814 48.786 56.584 48.6827 56.1044C48.5207 55.3528 47.7557 54.896 47.0173 55.1099L45.2075 55.6343C44.6774 55.7879 44.1158 55.7964 43.5813 55.6589Z" fill="var(--fill-0, #5E4BB2)"/>
</g>
<path id="Vector 765" d="M80.5086 43.2353L79.0549 42.167C77.4583 40.9938 76.9725 38.8224 77.9167 37.0806C78.9922 35.0968 81.5039 34.4087 83.4403 35.5676L84.9883 36.4939C86.8845 37.6288 87.5216 40.0738 86.4203 41.9897C85.2158 44.0851 82.4562 44.6666 80.5086 43.2353Z" fill="var(--fill-0, #D17032)"/>
<path id="Vector 766" d="M17.7719 41.1634L15.9709 41.0595C13.9929 40.9454 12.4025 39.3891 12.2455 37.4141C12.0667 35.1645 13.7982 33.2193 16.0533 33.1362L17.8561 33.0698C20.0644 32.9884 21.9307 34.6917 22.0508 36.8983C22.1822 39.3117 20.1849 41.3026 17.7719 41.1634Z" fill="var(--fill-0, #D17032)"/>
</g>
<defs>
<clipPath id="clip0_391_80">
<rect width="92" height="92" fill="white"/>
</clipPath>
</defs>
</svg>
