<svg preserveAspectRatio="none" width="100%" height="100%" overflow="visible" style="display: block;" viewBox="0 0 108.719 282.66" fill="none" xmlns="http://www.w3.org/2000/svg">
<path id="Mask" d="M16.057 282.603C13.1827 282.362 10.8062 281.668 8.73949 280.468C5.05351 278.328 2.43986 274.686 1.12901 269.865C0.527407 267.653 0.227058 265.332 0.081879 261.773C-0.0701223 258.048 0.00859581 20.7303 0.162364 19.1293C0.464277 15.9859 0.821473 14.097 1.5087 12.0096C3.02511 7.40365 5.7207 4.04265 9.53273 2.00484C11.7576 0.815474 14.283 0.216983 17.7988 0.0458569C19.7207 -0.0476886 21.7088 -0.011865 30.93 0.282464C33.372 0.360411 40.769 0.594607 47.3676 0.8029C90.2343 2.15603 89.3728 2.12569 91.6507 2.36221C95.6766 2.78024 98.401 3.72618 100.979 5.601C101.948 6.30595 103.827 8.22853 104.552 9.25649C105.814 11.0462 106.738 12.9733 107.406 15.2088C107.957 17.0533 108.235 18.597 108.554 21.5855C108.712 23.064 108.79 253.754 108.634 257.003C108.467 260.469 108.131 262.838 107.484 265.098C106.119 269.863 103.398 273.665 99.7035 275.966C97.5184 277.327 95.1314 278.104 91.812 278.534C89.7096 278.806 88.8963 278.862 78.5897 279.437C59.5469 280.5 38.5157 281.676 30.3632 282.135C21.7513 282.62 17.7958 282.749 16.057 282.603ZM68.4883 17.4407C69.9912 16.9615 71.0999 15.8158 71.6783 14.1444C72.2761 12.4172 72.0076 10.0665 71.0424 8.57784C70.5618 7.83662 69.6033 6.97154 68.8955 6.64034C67.7934 6.12461 67.6877 6.11748 55.8698 5.76213C49.7908 5.57934 44.3706 5.43075 43.825 5.43193C42.0359 5.43581 40.9453 5.8344 39.9392 6.8521C38.8441 7.95977 38.3093 9.35339 38.3093 11.0994C38.3093 14.0818 40.0398 16.3998 42.6901 16.9674C43.2222 17.0814 64.5162 17.71 66.4504 17.6688C67.5673 17.645 67.9989 17.5967 68.4883 17.4407Z" fill="var(--fill-0, black)"/>
</svg>
