<svg preserveAspectRatio="none" width="100%" height="100%" overflow="visible" style="display: block;" viewBox="0 0 265.048 381.006" fill="none" xmlns="http://www.w3.org/2000/svg">
<g id="Subtract" style="mix-blend-mode:hard-light">
<path d="M265.048 381.006H0V0H265.048V381.006ZM200.282 82.2725C195.888 65.6378 176.332 58.3886 162.157 68.1396L137.219 85.2939C132.146 88.7836 125.958 90.267 119.854 89.4561L95.0469 86.1592C82.4671 84.4877 70.6469 92.5602 67.626 104.886L65.4834 113.629C63.9396 119.927 59.9956 125.373 54.4932 128.805L45.3535 134.505C34.572 141.229 30.5958 155.001 36.1348 166.437L58.9219 213.48C61.5962 219.002 62.1341 225.317 60.4326 231.212L41.626 296.363C41.2029 297.829 40.9883 299.347 40.9883 300.873C40.9884 316.518 60.922 323.136 70.2793 310.598L94.0957 278.683C105.547 263.339 129.316 266.154 136.866 283.748L155.789 327.846C161.06 340.128 175.098 346.045 187.57 341.241L194.467 338.586C207.591 333.531 213.912 318.603 208.409 305.66L188.194 258.11C185.381 251.493 185.572 243.981 188.716 237.514L218.475 176.304L228.851 153.249C233.252 143.469 230.884 131.968 222.979 124.721L213.201 115.758C209.692 112.541 207.18 108.384 205.964 103.781L200.282 82.2725Z" fill="var(--fill-0, #BFACDF)"/>
</g>
</svg>
