<svg preserveAspectRatio="none" width="100%" height="100%" overflow="visible" style="display: block;" viewBox="0 0 265.048 381.006" fill="none" xmlns="http://www.w3.org/2000/svg">
<g id="Subtract" style="mix-blend-mode:hard-light">
<path d="M265.048 381.006H0V0H265.048V381.006ZM203.747 55.7314C199.057 38.938 178.987 32.064 164.986 42.4561L127.129 70.5566C121.048 75.0702 113.241 76.5661 105.923 74.6201L80.5195 67.8662C64.7411 63.6709 49.2715 75.565 49.2715 91.8916V102.95C49.2715 109.746 46.4886 116.246 41.5713 120.938L27.4229 134.436C19.9248 141.589 17.6498 152.643 21.7148 162.176L45.8848 218.85C48.0779 223.992 48.4735 229.724 47.0078 235.119L22.668 324.716C22.2614 326.212 22.0557 327.757 22.0557 329.308C22.0557 344.979 41.0617 352.763 52.0537 341.593L93.3271 299.65C107.687 285.057 132.544 293.107 135.624 313.348L138.745 333.854C140.594 346 151.037 354.975 163.322 354.975H194.051C210.125 354.975 221.974 339.95 218.227 324.318L200.199 249.12C198.762 243.125 199.604 236.81 202.561 231.4L230.309 180.643L251.757 144.894C260.482 130.351 251.088 111.676 234.21 110.014C224.724 109.079 216.786 102.417 214.222 93.2363L203.747 55.7314Z" fill="var(--fill-0, #DBCFED)"/>
</g>
</svg>
