<svg preserveAspectRatio="none" width="100%" height="100%" overflow="visible" style="display: block;" viewBox="0 0 76.1467 197.822" fill="none" xmlns="http://www.w3.org/2000/svg">
<g id="Group">
<path id="Vector" d="M59.8246 197.802C59.5156 197.788 49.4015 197.466 37.3489 197.086C25.2963 196.707 14.8104 196.364 14.0469 196.325C11.162 196.177 9.44914 195.883 7.90419 195.269C4.7465 194.015 2.32145 191.315 1.1177 187.714C0.459284 185.744 0.184983 183.9 0.0668872 180.647C-0.0217914 178.205 -0.0225395 21.2347 0.0661151 18.6539C0.159973 15.9217 0.33417 14.4991 0.793878 12.7108C1.34586 10.5636 2.1886 8.82945 3.44077 7.26431C5.45587 4.74555 8.16563 3.32768 11.8324 2.87343C13.5738 2.6577 13.2019 2.68125 27.5654 1.8772C33.0736 1.56886 42.6671 1.0306 48.8842 0.681074C63.3477 -0.132058 64.5079 -0.157377 66.7393 0.291397C70.1493 0.977203 72.7888 3.0723 74.3989 6.37102C75.2602 8.1357 75.7668 10.2265 76.0328 13.1146C76.1408 14.287 76.1956 179.9 76.0889 182.641C76.016 184.517 75.9037 185.805 75.7232 186.839C75.1408 190.174 73.8714 192.762 71.8797 194.675C70.1179 196.368 68.0845 197.298 65.3113 197.679C64.5567 197.783 61.1016 197.86 59.8246 197.802ZM37.8511 12.752C43.3335 12.4737 45.7843 12.326 46.1145 12.2539C47.6223 11.9248 48.71 10.8253 49.1156 9.22036C49.2767 8.5831 49.2894 7.61453 49.1448 7.00089C48.8491 5.74633 48.024 4.77326 46.9279 4.38653C46.2208 4.13708 46.0966 4.1398 37.8638 4.58499C29.1473 5.05633 29.2274 5.05111 28.6305 5.18719C26.184 5.74498 24.912 8.83192 26.1173 11.2865C26.5626 12.1936 27.2715 12.7915 28.206 13.0484C28.7366 13.1943 29.7537 13.1631 37.8511 12.752Z" fill="var(--fill-0, white)"/>
</g>
</svg>
