<svg preserveAspectRatio="none" width="100%" height="100%" overflow="visible" style="display: block;" viewBox="0 0 108.719 282.66" fill="none" xmlns="http://www.w3.org/2000/svg">
<g id="Group">
<path id="Vector" d="M16.057 282.603C13.1827 282.362 10.8062 281.668 8.73952 280.468C5.05355 278.328 2.43989 274.686 1.12904 269.865C0.527441 267.653 0.227092 265.332 0.081913 261.773C-0.0700884 258.048 0.00862975 20.7304 0.162398 19.1294C0.464311 15.986 0.821507 14.0971 1.50873 12.0097C3.02514 7.40375 5.72073 4.04275 9.53277 2.00495C11.7577 0.815578 14.283 0.217087 17.7988 0.0459612C19.7207 -0.0475843 21.7088 -0.0117607 30.93 0.282569C33.3721 0.360515 40.769 0.594711 47.3677 0.803004C90.2344 2.15613 89.3728 2.12579 91.6507 2.36232C95.6766 2.78034 98.401 3.72628 100.979 5.60111C101.948 6.30605 103.827 8.22863 104.552 9.25659C105.814 11.0463 106.738 12.9734 107.406 15.209C107.957 17.0534 108.235 18.5971 108.554 21.5856C108.712 23.0641 108.79 253.754 108.634 257.003C108.467 260.469 108.131 262.838 107.484 265.098C106.119 269.864 103.398 273.665 99.7036 275.966C97.5184 277.327 95.1315 278.104 91.8121 278.534C89.7097 278.806 88.8964 278.862 78.5897 279.437C59.547 280.5 38.5157 281.677 30.3632 282.135C21.7513 282.62 17.7958 282.749 16.057 282.603ZM68.4883 17.4408C69.9912 16.9616 71.1 15.8159 71.6784 14.1446C72.2761 12.4173 72.0076 10.0666 71.0425 8.57795C70.5619 7.83672 69.6033 6.97164 68.8956 6.64045C67.7935 6.12472 67.6877 6.11759 55.8699 5.76224C49.7908 5.57944 44.3706 5.43085 43.8251 5.43203C42.036 5.43592 40.9453 5.83451 39.9392 6.8522C38.8441 7.95988 38.3094 9.3535 38.3094 11.0995C38.3094 14.0819 40.0399 16.3999 42.6901 16.9675C43.2223 17.0815 64.5162 17.7101 66.4504 17.6689C67.5674 17.6452 67.999 17.5968 68.4883 17.4408Z" fill="var(--fill-0, white)"/>
</g>
</svg>
