<svg preserveAspectRatio="none" width="100%" height="100%" overflow="visible" style="display: block;" viewBox="0 0 422.272 605.355" fill="none" xmlns="http://www.w3.org/2000/svg">
<g id="pexels-cottonbro-4098148 4" style="mix-blend-mode:hard-light">
<path d="M0.00687815 41.1664C-0.306847 24.1163 10.1372 8.71167 26.0922 2.69152C58.7986 -9.64925 90.6454 22.6256 77.8691 55.1643L69.6048 76.2117C63.2793 92.3216 65.6675 110.551 75.9294 124.488L103.061 161.336C115.788 178.62 116.619 201.939 105.155 220.086C92.3096 240.42 95.0427 266.902 111.77 284.184L130.04 303.059C153.11 326.893 160.321 361.916 148.543 392.926L147.635 395.315C122.859 460.545 178.887 527.799 247.519 515.213L308.035 504.116C336.749 498.85 366.331 506.395 389.015 524.77L408.787 540.785C414.772 545.634 419.062 552.259 421.037 559.704C427.255 583.148 409.197 605.986 384.951 605.342L105.773 597.924C52.311 596.504 9.42971 553.271 8.44582 499.799L0.00687815 41.1664Z" fill="var(--fill-0, #CDBEE6)"/>
</g>
</svg>
