<svg preserveAspectRatio="none" width="100%" height="100%" overflow="visible" style="display: block;" viewBox="0 0 108.819 282.703" fill="none" xmlns="http://www.w3.org/2000/svg">
<g id="Group">
<path id="Vector" d="M85.494 282.674C85.0524 282.654 70.5986 282.194 53.3745 281.652C36.1504 281.109 21.1652 280.62 20.0741 280.564C15.9513 280.352 13.5036 279.932 11.2957 279.054C6.78312 277.262 3.31753 273.404 1.59728 268.258C0.656353 265.443 0.264355 262.807 0.0955869 258.159C-0.0311416 254.669 -0.0322106 30.3461 0.0944837 26.6579C0.228614 22.7533 0.477555 20.7204 1.13451 18.1648C1.92334 15.0962 3.12769 12.618 4.91713 10.3813C7.79686 6.78182 11.6693 4.75557 16.9094 4.10642C19.3981 3.79811 18.8665 3.83177 39.3931 2.68272C47.2647 2.24207 60.9745 1.47286 69.8594 0.973362C90.5288 -0.188666 92.1868 -0.224849 95.3756 0.416484C100.249 1.39655 104.021 4.39061 106.322 9.10474C107.553 11.6266 108.277 14.6145 108.657 18.7418C108.811 20.4173 108.889 257.091 108.737 261.008C108.633 263.688 108.472 265.53 108.214 267.007C107.382 271.773 105.568 275.472 102.722 278.206C100.204 280.625 97.2981 281.954 93.3349 282.499C92.2566 282.648 87.319 282.758 85.494 282.674ZM54.0922 18.2237C61.9269 17.826 65.4293 17.6148 65.9013 17.5118C68.056 17.0415 69.6103 15.4703 70.1901 13.1767C70.4202 12.266 70.4384 10.8818 70.2318 10.0049C69.8092 8.212 68.63 6.82142 67.0635 6.26874C66.0532 5.91226 65.8756 5.91615 54.1103 6.55236C41.6538 7.22595 41.7682 7.21848 40.9153 7.41295C37.419 8.21008 35.6012 12.6215 37.3236 16.1294C37.9601 17.4256 38.9731 18.2802 40.3086 18.6473C41.0669 18.8558 42.5203 18.8111 54.0922 18.2237Z" fill="var(--fill-0, white)"/>
</g>
</svg>
