<svg preserveAspectRatio="none" width="100%" height="100%" overflow="visible" style="display: block;" viewBox="0 0 92 92" fill="none" xmlns="http://www.w3.org/2000/svg">
<g id="Frame 27498" clip-path="url(#clip0_391_131)">
<path id="Vector 1005" d="M73.2992 80.8166C72.7817 81.2009 70.3653 80.7846 63.4213 76.1789L61.6261 78.4909C64.0589 79.9681 69.3098 83.1319 70.8512 83.9694C72.3926 84.8069 75.621 87.2824 76.2343 86.7747L81.1174 80.4859C81.32 79.9426 80.9359 78.8849 79.9787 78.1417C79.114 77.4702 76.6321 77.0888 76.0337 77.8594C75.4353 78.6301 73.8167 80.4324 73.2992 80.8166Z" fill="var(--fill-0, #845EC2)"/>
<path id="Vector 1006" d="M52.8023 84.3886C52.2658 84.7131 49.9176 84.064 43.4115 78.8602L41.4812 80.9447C43.7702 82.6343 48.7126 86.257 50.1699 87.2311C51.6272 88.2052 54.6283 90.9518 55.2678 90.516L60.5186 84.8461C60.7565 84.3344 60.4536 83.2603 59.5645 82.4369C58.7612 81.693 56.3462 81.0714 55.7027 81.7662C55.0592 82.4611 53.3388 84.0641 52.8023 84.3886Z" fill="var(--fill-0, #845EC2)"/>
<circle id="Ellipse 1855" cx="33.1589" cy="33.1589" r="33.1589" transform="matrix(-1 0 0 1 81.3311 15.3577)" fill="var(--fill-0, #A678F6)"/>
<g id="Group 3206">
<g id="Group 2683">
<ellipse id="Ellipse 1644" cx="2.39738" cy="2.06477" rx="2.39738" ry="2.06477" transform="matrix(-0.999992 0.00395618 0.00395618 0.999992 68.2666 42.8804)" fill="var(--fill-0, #5E4BB2)"/>
<ellipse id="Ellipse 1645" cx="2.39738" cy="2.06477" rx="2.39738" ry="2.06477" transform="matrix(-0.999992 0.00395618 0.00395618 0.999992 54.2012 42.9368)" fill="var(--fill-0, #5E4BB2)"/>
</g>
<path id="Vector 40" d="M59.4616 49.6589L61.575 49.1152C62.3109 48.9259 63.0437 49.4332 63.1254 50.1887C63.1689 50.5905 63.015 50.9884 62.7125 51.2564L62.055 51.8387C61.698 52.1549 61.2696 52.3798 60.8065 52.4939L59.8175 52.7378C59.2233 52.8843 58.6069 52.918 58.0002 52.8372L57.4997 52.7704C56.9027 52.6909 56.3407 52.4423 55.8802 52.0541L55.0095 51.3202C54.6511 51.0181 54.4888 50.5428 54.5875 50.0846C54.7422 49.3665 55.4732 48.93 56.1787 49.1345L57.9078 49.6354C58.4143 49.7822 58.9509 49.7903 59.4616 49.6589Z" fill="var(--fill-0, #5E4BB2)"/>
</g>
<rect id="Rectangle 7150" width="18.7214" height="25.8095" rx="2.03495" transform="matrix(-0.989336 -0.145652 -0.145652 0.989336 76.5 56.8567)" fill="var(--fill-0, #E7ECFA)"/>
<path id="Vector 1007" d="M77.9841 70.3013L78.5104 68.66C79.0884 66.8574 78.2476 64.9048 76.5409 64.0861C74.5969 63.1535 72.2676 64.0286 71.4185 66.0104L70.7397 67.5948C69.9082 69.5356 70.7853 71.7847 72.7112 72.6502C74.8176 73.5967 77.2789 72.5003 77.9841 70.3013Z" fill="var(--fill-0, #845EC2)"/>
<path id="Rectangle 7151" d="M40.8453 50.0005C40.5974 49.7196 40.1688 49.6929 39.8879 49.9408L38.0776 51.5384C37.7967 51.7863 37.7699 52.2149 38.0178 52.4958L48.6148 64.5037C48.7103 64.6119 48.8379 64.6869 48.9789 64.7176L50.9727 65.1523C51.4203 65.2499 51.8339 64.8849 51.7927 64.4286L51.6093 62.3963C51.5963 62.2525 51.5378 62.1166 51.4423 62.0084L40.8453 50.0005Z" fill="var(--fill-0, #FFCE6F)"/>
<g id="Group 3207">
<path id="Vector 977" d="M48.6802 61.0971L49.2065 59.4558C49.7846 57.6532 48.9438 55.7006 47.237 54.8818C45.293 53.9493 42.9638 54.8244 42.1147 56.8062L41.4359 58.3906C40.6044 60.3313 41.4815 62.5805 43.4073 63.4459C45.5137 64.3925 47.9751 63.2961 48.6802 61.0971Z" fill="var(--fill-0, #845EC2)"/>
<path id="Vector 978" d="M35.4424 61.663C33.8489 61.6871 32.7194 61.021 30.674 58.4869C29.7105 57.2931 27.7768 57.1519 27.1054 58.5312C26.9569 58.8362 26.9063 59.0665 27.0223 59.1516C27.5028 59.504 32.933 64.7698 34.4484 65.2275C35.9639 65.6852 46.3437 61.3756 46.9213 61.022C47.4989 60.6683 46.5987 58.9101 46.3749 58.4005C46.1512 57.8909 45.6476 57.645 44.9746 57.4105C44.3016 57.176 37.4532 61.6326 35.4424 61.663Z" fill="var(--fill-0, #845EC2)"/>
</g>
<rect id="Rectangle 7152" width="8.44494" height="3.7632" rx="1.35663" transform="matrix(-0.989323 -0.145738 -0.145738 0.989323 71.7246 54.7817)" fill="var(--fill-0, #62B8FF)"/>
<rect id="Rectangle 7153" width="0.922607" height="0.912342" rx="0.441447" transform="matrix(-0.689058 -0.724706 -0.724706 0.689058 52.2715 64.998)" fill="var(--fill-0, #5E4BB2)"/>
<g id="Polygon 55">
<path d="M71.8979 7.45927C72.4441 7.12157 72.4199 6.31921 71.8543 6.01504L67.2274 3.52654C66.6618 3.22236 65.9791 3.64449 65.9984 4.28638L66.1568 9.53766C66.1761 10.1795 66.8831 10.5598 67.4293 10.2221L71.8979 7.45927Z" fill="var(--fill-0, #4DB67D)"/>
<path d="M71.8979 7.45927C72.4441 7.12157 72.4199 6.31921 71.8543 6.01504L67.2274 3.52654C66.6618 3.22236 65.9791 3.64449 65.9984 4.28638L66.1568 9.53766C66.1761 10.1795 66.8831 10.5598 67.4293 10.2221L71.8979 7.45927Z" fill="var(--fill-1, white)" fill-opacity="0.2"/>
</g>
<path id="+" d="M13.198 23.4692C13.1965 23.0056 13.5712 22.6285 14.0349 22.6271L16.1112 22.6206C16.5748 22.6191 16.9495 22.2421 16.9481 21.7784L16.9431 20.1742C16.9416 19.7106 16.5646 19.3359 16.1009 19.3373L14.0246 19.3438C13.561 19.3453 13.1839 18.9706 13.1825 18.5069L13.176 16.4306C13.1745 15.967 12.7975 15.5923 12.3338 15.5937L10.7082 15.5988C10.2445 15.6002 9.86982 15.9773 9.87127 16.441L9.87769 18.4957C9.87914 18.9594 9.50443 19.3365 9.04076 19.3379L6.98597 19.3443C6.5223 19.3458 6.14759 19.7228 6.14904 20.1865L6.15412 21.8121C6.15557 22.2758 6.53263 22.6505 6.9963 22.6491L9.05109 22.6426C9.51476 22.6412 9.89181 23.0159 9.89326 23.4796L9.89975 25.5558C9.9012 26.0195 10.2783 26.3942 10.7419 26.3927L12.3675 26.3877C12.8312 26.3862 13.2059 26.0092 13.2045 25.5455L13.198 23.4692Z" fill="var(--fill-0, #EEA63B)"/>
<circle id="Ellipse 1645_2" cx="74.5929" cy="18.3012" r="2.26707" transform="rotate(-8.15038 74.5929 18.3012)" stroke="var(--stroke-0, #A8D6FA)" stroke-width="1.79548"/>
<path id="Polygon 54" d="M8.717 36.3607C9.06879 36.6043 9.55233 36.3757 9.58738 35.9493L9.95469 31.4805C9.98974 31.0541 9.55001 30.7496 9.16317 30.9325L5.10947 32.8488C4.72264 33.0316 4.67882 33.5647 5.03061 33.8083L8.717 36.3607Z" fill="var(--fill-0, #845EC2)"/>
</g>
<defs>
<clipPath id="clip0_391_131">
<rect width="92" height="92" fill="white"/>
</clipPath>
</defs>
</svg>
