<svg preserveAspectRatio="none" width="100%" height="100%" overflow="visible" style="display: block;" viewBox="0 0 439.425 607.713" fill="none" xmlns="http://www.w3.org/2000/svg">
<path id="pexels-cottonbro-4098148 5" d="M0.00762875 45.7317C-0.336939 26.9903 11.0184 10.0142 28.4719 3.17798C63.1913 -10.4209 98.3651 21.8543 87.7948 57.6123L84.3899 69.1307C81.051 80.4258 81.7495 92.5312 86.3653 103.367L115.359 171.432C120.855 184.336 120.007 199.067 113.066 211.255C104.93 225.542 105.251 243.132 113.904 257.112L141.591 301.847C157.822 328.074 159.127 360.887 145.029 388.319C112.722 451.184 164.026 524.544 234.159 515.768L328.867 503.917C341.728 502.308 354.782 503.388 367.204 507.087L407.035 518.95C428.533 525.353 442.114 546.518 438.976 568.729C435.753 591.543 415.926 608.309 392.893 607.697L105.72 600.061C52.2585 598.639 9.3782 555.406 8.3951 501.935L0.00762875 45.7317Z" fill="var(--fill-0, white)"/>
</svg>
