<svg preserveAspectRatio="none" width="100%" height="100%" overflow="visible" style="display: block;" viewBox="0 0 263.314 378.515" fill="none" xmlns="http://www.w3.org/2000/svg">
<g id="Subtract" style="mix-blend-mode:hard-light">
<path d="M263.314 378.515H0V0H263.314V378.515ZM198.973 81.7344C194.607 65.2086 175.179 58.0064 161.097 67.6934L136.321 84.7363C131.282 88.2031 125.135 89.6766 119.071 88.8711L94.4248 85.5957C81.9273 83.9352 70.1848 91.9544 67.1836 104.199L65.0547 112.886C63.521 119.143 59.6031 124.553 54.1367 127.962L45.0566 133.625C34.3455 140.305 30.3955 153.988 35.8984 165.349L58.5361 212.084C61.1932 217.57 61.7275 223.844 60.0371 229.7L41.3535 294.426C40.9333 295.882 40.7197 297.39 40.7197 298.905C40.7197 314.448 60.5232 321.023 69.8193 308.566L93.4805 276.86C104.856 261.617 128.47 264.413 135.971 281.893L154.77 325.702C160.006 337.904 173.953 343.783 186.344 339.01L193.194 336.371C206.233 331.349 212.512 316.52 207.046 303.661L186.964 256.422C184.169 249.848 184.358 242.386 187.481 235.961L217.046 175.151L227.354 152.246C231.726 142.53 229.375 131.104 221.521 123.904L211.807 115.001C208.32 111.805 205.825 107.675 204.617 103.103L198.973 81.7344Z" fill="var(--fill-0, #BFACDF)"/>
</g>
</svg>
