<svg preserveAspectRatio="none" width="100%" height="100%" overflow="visible" style="display: block;" viewBox="0 0 263.314 378.515" fill="none" xmlns="http://www.w3.org/2000/svg">
<g id="Subtract" style="mix-blend-mode:hard-light">
<path d="M263.314 378.515H0V0H263.314V378.515ZM202.415 55.3662C197.755 38.6828 177.816 31.8545 163.907 42.1787L126.297 70.0957C120.256 74.5797 112.5 76.0651 105.229 74.1318L79.9932 67.4219C64.318 63.2539 48.9485 75.0703 48.9482 91.29V102.276C48.9482 109.028 46.1841 115.486 41.2988 120.146L27.2432 133.557C19.7941 140.663 17.5346 151.645 21.5732 161.115L45.585 217.418C47.7638 222.527 48.1563 228.222 46.7002 233.582L22.5195 322.593C22.1156 324.08 21.9111 325.614 21.9111 327.154C21.9112 342.723 40.7928 350.455 51.7129 339.358L92.7168 297.69C106.983 283.193 131.677 291.19 134.737 311.298L137.837 331.671C139.673 343.737 150.049 352.653 162.254 352.653H192.781C208.75 352.653 220.521 337.727 216.799 322.198L198.89 247.491C197.462 241.535 198.298 235.261 201.236 229.887L228.802 179.461L250.11 143.946C258.779 129.499 249.445 110.946 232.678 109.295C223.254 108.367 215.367 101.746 212.82 92.626L202.415 55.3662Z" fill="var(--fill-0, #DBCFED)"/>
</g>
</svg>
