<svg preserveAspectRatio="none" width="100%" height="100%" overflow="visible" style="display: block;" viewBox="0 0 402.416 594.06" fill="none" xmlns="http://www.w3.org/2000/svg">
<g id="pexels-cottonbro-4098148 3" style="mix-blend-mode:hard-light">
<path d="M0.00688489 41.1895C-0.307102 24.1287 10.1441 8.7148 26.1095 2.69202C58.835 -9.65338 90.6973 22.6418 77.9115 55.1978L70.539 73.9701C63.7527 91.25 67.2472 110.877 79.5806 124.753L115.796 165.497C130.726 182.294 130.457 207.684 115.175 224.161C101.217 239.21 99.6337 261.951 111.371 278.789L130.746 306.584C142.443 323.364 147.752 343.774 145.712 364.127L144.107 380.138C137.637 444.694 193.404 498.225 257.642 489.12L290.104 484.519C317.604 480.621 345.487 488.337 367.072 505.818L388.443 523.125C394.645 528.148 399.091 535.012 401.138 542.727C407.412 566.378 389.81 589.635 365.344 590.021L109.935 594.047C54.8162 594.916 9.38979 551.016 8.37543 495.9L0.00688489 41.1895Z" fill="var(--fill-0, #CDBEE6)"/>
</g>
</svg>
