<svg width="143" height="115" viewBox="0 0 143 115" fill="none" xmlns="http://www.w3.org/2000/svg">
<path d="M116.222 59.7086L111.407 58.5124C109.63 58.0711 107.863 59.2656 107.61 61.0784C107.388 62.6672 108.422 64.1605 109.987 64.5124L115.682 65.7928C118.071 66.33 120.576 65.9159 122.665 64.6382L135.545 56.7612C136.373 56.2545 136.913 55.3854 136.999 54.4181L137.034 54.0258C137.144 52.7992 136.373 51.6656 135.192 51.3166C134.466 51.1024 133.684 51.2164 133.05 51.6286L122.158 58.7108C120.404 59.8518 118.254 60.2132 116.222 59.7086Z" fill="#2196F3"/>
<path d="M36.755 58.5984L44.5717 57.2106C46.2494 56.9128 47.8389 58.0674 48.0744 59.755C48.3111 61.4514 47.0846 63.0024 45.3793 63.1632L34.8853 64.1522C31.0434 64.5143 27.2376 63.1623 24.4853 60.4575L19.7612 55.8152C19.1825 55.2465 18.8251 54.4905 18.753 53.6824L18.6746 52.8048C18.5754 51.6942 19.2734 50.6679 20.3427 50.3519C21.1654 50.1089 22.0552 50.3353 22.6616 50.9422L27.3546 55.6386C29.8161 58.1021 33.3261 59.2072 36.755 58.5984Z" fill="#2196F3"/>
<path d="M57.6704 98.6724C58.4383 97.9045 60.5413 94.8905 61.5461 81.4438L66.2829 81.4438C65.7566 86.0195 64.5891 95.871 64.1298 98.6724C63.6704 101.474 63.6306 108.057 62.373 108.337L52.407 114.804C51.5114 114.523 48.503 111.885 48.5029 109.924C48.5029 108.152 49.7584 106.703 50.5247 105.322C51.4287 103.694 56.9329 99.41 57.6704 98.6724Z" fill="#2196F3"/>
<path d="M89.8375 96.7798C89.12 96.0623 87.0511 92.9979 86.0759 79.5513L81.4784 79.5513C81.9892 84.1269 83.1224 93.9784 83.5682 96.7798C84.014 99.5812 84.0527 106.164 85.2733 106.445L94.9401 111.849C95.8093 111.569 97.8408 109.604 97.8408 107.643C97.8408 105.872 96.8756 104.502 95.8103 103.437C94.7266 102.354 90.404 97.3462 89.8375 96.7798Z" fill="#2196F3"/>
<path d="M133.916 56.4601L132.476 55.1983C130.894 53.8125 130.577 51.472 131.734 49.7157C133.052 47.7154 135.771 47.2159 137.713 48.6173L139.266 49.7377C141.169 51.1101 141.62 53.7537 140.281 55.6798C138.817 57.7865 135.846 58.1507 133.916 56.4601Z" fill="#2196F3"/>
<path d="M21.4781 55.3428L23.0211 54.2089C24.7158 52.9636 25.2315 50.6587 24.2292 48.8099C23.0876 46.7041 20.4216 45.9738 18.3662 47.2038L16.7231 48.1872C14.7103 49.3917 14.034 51.987 15.2031 54.0206C16.4816 56.2449 19.4108 56.862 21.4781 55.3428Z" fill="#2196F3"/>
<path d="M85.9272 6.85606C85.8168 6.52271 85.9974 6.16291 86.3308 6.05243L88.517 5.32786C88.8504 5.21738 89.0311 4.85759 88.9206 4.52424L88.3374 2.76458C88.2269 2.43123 87.8671 2.25056 87.5338 2.36104L85.3475 3.08561C85.0142 3.19609 84.6544 3.01542 84.5439 2.68207L83.8193 0.495814C83.7088 0.162464 83.349 -0.0182083 83.0157 0.0922709L81.2367 0.681884C80.9033 0.792363 80.7226 1.15216 80.8331 1.48551L81.5513 3.65237C81.6617 3.98572 81.4811 4.34552 81.1477 4.456L78.9808 5.17414C78.6475 5.28462 78.4668 5.64442 78.5773 5.97777L79.1669 7.75681C79.2774 8.09016 79.6372 8.27083 79.9705 8.16035L82.1374 7.44221C82.4708 7.33173 82.8306 7.5124 82.941 7.84575L83.6656 10.032C83.7761 10.3654 84.1359 10.546 84.4692 10.4356L86.2483 9.84594C86.5816 9.73546 86.7623 9.37566 86.6518 9.04231L85.9272 6.85606Z" fill="#EEA63B"/>
<path d="M23.2969 17.0151L17.7746 15.8286" stroke="#DE68CB" stroke-width="2.44204" stroke-linecap="round"/>
<path d="M24.5 12.0415L20.3544 7.68567" stroke="#DE68CB" stroke-width="2.44204" stroke-linecap="round"/>
<path d="M29.2705 10.6226L27.4873 5.29406" stroke="#DE68CB" stroke-width="2.44204" stroke-linecap="round"/>
<circle cx="76.2772" cy="54.1864" r="35.6561" fill="#8FCAF9"/>
<circle cx="124.716" cy="6.40203" r="4.66126" transform="rotate(12.5048 124.716 6.40203)" stroke="#71C597" stroke-width="3.47838"/>
<rect x="114.977" y="16.0273" width="23.3437" height="6.834" rx="1.42802" transform="rotate(55.8245 114.977 16.0273)" fill="#C7F1EC"/>
<rect x="29.8418" y="23.4272" width="9.82509" height="9.82509" transform="rotate(26.3523 29.8418 23.4272)" fill="#E57E4D"/>
<ellipse cx="2.9912" cy="2.57621" rx="2.9912" ry="2.57621" transform="matrix(-0.99997 -0.00771231 -0.00771231 0.99997 88.8213 37.1069)" fill="#5E4BB2"/>
<ellipse cx="2.9912" cy="2.57621" rx="2.9912" ry="2.57621" transform="matrix(-0.99997 -0.00771231 -0.00771231 0.99997 71.2744 36.9722)" fill="#5E4BB2"/>
<path d="M77.7221 45.4352L80.3241 44.798C81.2675 44.567 82.1964 45.2263 82.2897 46.1931C82.3358 46.6716 82.1635 47.1454 81.8207 47.4825L81.1528 48.1392C80.6528 48.6309 80.0186 48.9639 79.33 49.0963L78.0524 49.342C77.3532 49.4765 76.6364 49.4929 75.9318 49.3906L75.2292 49.2886C74.4854 49.1806 73.788 48.8623 73.219 48.3713L72.1435 47.443C71.7007 47.0609 71.5051 46.4655 71.6349 45.8953C71.8384 45.0016 72.7567 44.4677 73.634 44.7331L75.7839 45.3833C76.4137 45.5737 77.083 45.5916 77.7221 45.4352Z" fill="#5E4BB2"/>
</svg>
