<svg preserveAspectRatio="none" width="100%" height="100%" overflow="visible" style="display: block;" viewBox="0 0 209.089 25.0479" fill="none" xmlns="http://www.w3.org/2000/svg">
<g id="Layer 1">
<path id="Vector" d="M206.395 9.43859C205.963 9.4441 205.539 9.32102 205.177 9.08503C204.815 8.84904 204.532 8.51082 204.364 8.11343C204.195 7.71604 204.148 7.27747 204.23 6.85356C204.311 6.42965 204.517 6.03959 204.822 5.73304C205.126 5.4265 205.514 5.21734 205.938 5.13221C206.361 5.04707 206.8 5.08981 207.199 5.25498C207.599 5.42015 207.939 5.70028 208.179 6.05969C208.418 6.4191 208.545 6.84154 208.543 7.27321C208.543 7.8475 208.315 8.39828 207.908 8.80437C207.502 9.21045 206.951 9.43859 206.376 9.43859M206.376 4.56185C205.839 4.56185 205.315 4.72087 204.869 5.0188C204.423 5.31672 204.075 5.74018 203.869 6.23562C203.664 6.73105 203.61 7.27622 203.715 7.80217C203.82 8.32812 204.078 8.81124 204.458 9.19043C204.837 9.56962 205.32 9.82785 205.847 9.93247C206.373 10.0371 206.919 9.98339 207.414 9.77818C207.91 9.57296 208.334 9.22544 208.632 8.77956C208.93 8.33368 209.089 7.80946 209.089 7.27321C209.089 6.55411 208.803 5.86447 208.295 5.35599C207.786 4.84751 207.096 4.56185 206.376 4.56185Z" fill="var(--fill-0, #1E1C21)"/>
<path id="Vector_2" d="M206.478 7.48446H205.876V6.21669H206.478C206.568 6.20584 206.659 6.21413 206.745 6.24103C206.832 6.26793 206.911 6.31281 206.979 6.37272C207.046 6.43264 207.101 6.50621 207.138 6.58858C207.175 6.67095 207.194 6.76025 207.194 6.85058C207.194 6.94091 207.175 7.03021 207.138 7.11258C207.101 7.19495 207.046 7.26852 206.979 7.32843C206.911 7.38834 206.832 7.43323 206.745 7.46012C206.659 7.48702 206.568 7.49532 206.478 7.48446ZM206.423 5.8558H205.423V8.6782H205.876V7.87312H206.636L207.117 8.70596H207.617L207.071 7.73431C207.904 7.35491 207.904 5.88356 206.45 5.88356" fill="var(--fill-0, #1E1C21)"/>
<path id="Vector_3" d="M136.806 13.1023C136.806 9.45632 134.213 7.06885 130.528 7.06885C126.842 7.06885 124.361 9.34528 123.694 13.1023H136.806ZM121.203 15.0271C121.203 9.16946 125.129 5.04227 130.528 5.04227C136.084 5.04227 139.788 9.31752 139.121 14.9901H123.555C123.555 19.7928 126.333 22.9761 130.602 22.9761C133.787 22.9761 136.389 21.1901 136.917 18.525L139.121 19.0525C138.352 22.5597 134.843 25.0119 130.667 25.0119C125.111 25.0119 121.203 20.8755 121.203 15.0271Z" fill="var(--fill-0, #1E1C21)"/>
<path id="Vector_4" d="M149.278 23.0492C153.168 23.0492 156.01 20.273 156.01 15.2667V14.6745L150.575 15.2667C146.649 15.6924 144.75 17.2285 144.75 19.616C144.75 21.8277 146.473 23.0492 149.278 23.0492ZM142.435 19.6808C142.435 16.2199 144.963 13.9712 150.501 13.379L156.01 12.7867V11.8614C156.01 8.95567 153.76 7.09566 150.612 7.09566C147.463 7.09566 145.204 8.94641 144.926 11.8614L142.722 11.5097C143.25 7.62313 146.538 5.03207 150.612 5.03207C155.094 5.03207 158.288 7.8082 158.288 12.0002V24.7334H156.01V20.671C155.233 23.262 152.306 25.011 148.991 25.011C145.028 25.011 142.435 22.9474 142.435 19.6808Z" fill="var(--fill-0, #1E1C21)"/>
<path id="Vector_5" d="M165.902 0.498863H163.587V24.7345H165.902V0.498863Z" fill="var(--fill-0, #1E1C21)"/>
<path id="Vector_6" d="M172.244 19.4766V8.14993H169.197V6.22514H172.244V1.89437H174.559V6.22514H179.189V8.14993H174.559V19.3377C174.559 21.753 175.716 22.9467 177.475 22.9467C178.196 22.935 178.909 22.7907 179.577 22.521L179.753 24.5569C178.968 24.8594 178.132 25.0132 177.29 25.0103C174.355 25.0103 172.244 23.1596 172.244 19.458" fill="var(--fill-0, #1E1C21)"/>
<path id="Vector_7" d="M182.802 0.469566H185.117V9.72335C185.754 8.3386 186.776 7.1662 188.062 6.34586C189.347 5.52551 190.842 5.09182 192.367 5.09646C196.367 5.09646 199.488 7.76154 199.488 11.7869V24.7422H197.173V12.1478C197.204 11.4742 197.093 10.8017 196.848 10.1734C196.603 9.54519 196.229 8.97521 195.75 8.50015C195.271 8.02509 194.698 7.65548 194.067 7.41512C193.437 7.17475 192.763 7.06895 192.089 7.10453C188.024 7.10453 185.117 10.4729 185.117 16.1825V24.733H182.802V0.469566Z" fill="var(--fill-0, #1E1C21)"/>
<path id="Vector_8" d="M8.40802 24.7261V3.56271H0V0H20.8163V3.56271H12.3713V24.7261H8.40802Z" fill="var(--fill-0, #1E1C21)"/>
<path id="Vector_9" d="M57.9307 24.7239H53.9952V13.0271C53.9952 10.0011 52.3006 8.51128 48.9115 8.51128C45.5224 8.51128 43.7907 10.0011 43.7907 13.0271V24.7239H39.8553V12.8513C39.8553 7.90052 42.8555 4.94857 48.9115 4.94857C54.9675 4.94857 57.9307 7.90052 57.9307 12.8513V24.7239Z" fill="var(--fill-0, #1E1C21)"/>
<path id="Vector_10" d="M77.2743 24.7267H60.9305V22.0246C60.9305 22.0246 70.7831 9.54129 71.3294 8.86576H61.1898V5.30305H77.0521V7.72755C77.0521 7.72755 68.2829 18.8321 66.5143 21.1733H77.3021L77.2743 24.7267Z" fill="var(--fill-0, #1E1C21)"/>
<path id="Vector_11" d="M90.4413 4.98493C90.0801 4.98493 89.719 4.98493 89.3301 4.98493C83.2741 4.98493 80.2831 7.93688 80.2831 12.8877V24.7232H84.2093V13.0265C84.2093 10.0005 85.9039 8.51062 89.3301 8.51062C89.7012 8.50924 90.0721 8.52778 90.4413 8.56614V4.98493Z" fill="var(--fill-0, #1E1C21)"/>
<path id="Vector_12" d="M22.4184 12.9994C22.4184 9.96412 24.2704 8.43725 27.7892 8.43725C31.308 8.43725 33.0951 9.93636 33.0951 12.9623V13.2122H22.4184V12.9994ZM32.7618 19.7454C32.1074 20.9792 30.4622 21.5961 27.8262 21.5961C24.221 21.5714 22.4184 20.0631 22.4184 17.071V16.3492H36.8547V12.7495C36.8547 7.90053 33.7155 4.94857 27.7614 4.94857C21.8073 4.94857 18.6033 7.87277 18.6033 12.7495V17.2839C18.6033 22.1236 21.6313 25.0478 27.7984 25.0478C31.8635 25.0478 34.6045 23.78 35.9287 21.8367L32.7618 19.7454Z" fill="var(--fill-0, #1E1C21)"/>
<path id="Vector_13" d="M100.72 0.191734H103.044V10.0285H115.582V0.191734H117.906V24.8068H115.582V12.2124H103.044V24.8068H100.72V0.191734Z" fill="var(--fill-0, #1E1C21)"/>
</g>
</svg>
