<svg preserveAspectRatio="none" width="100%" height="100%" overflow="visible" style="display: block;" viewBox="0 0 35.8447 35.8982" fill="none" xmlns="http://www.w3.org/2000/svg">
<g id="Group 3869">
<path id="Vector" opacity="0.51" d="M11.709 24.9631H11.346C10.3514 25.001 9.36366 25.1452 8.39975 25.3933C6.84096 25.8957 5.39152 26.6886 4.1281 27.7302L3.72289 27.6289C3.22342 27.4716 2.74877 27.2444 2.31307 26.954C1.38675 25.4719 0.756085 23.8247 0.455835 22.1031C2.31938 21.4767 4.3191 21.3728 6.23761 21.8026C8.15613 22.2325 9.92002 23.1797 11.3376 24.5412C11.4726 24.6678 11.5824 24.8028 11.7006 24.9293" fill="var(--fill-0, #845EC2)" fill-opacity="0.48"/>
<path id="Vector_2" opacity="0.51" d="M35.4569 21.5623C35.2207 22.7181 34.8729 23.8482 34.4185 24.9369C33.4462 24.233 32.5186 23.4695 31.6411 22.6506L31.9028 22.465C32.02 22.3858 32.1412 22.3126 32.2658 22.2457C33.2417 21.7143 34.3477 21.4687 35.4569 21.537" fill="var(--fill-0, #845EC2)" fill-opacity="0.48"/>
<path id="Vector_3" opacity="0.51" d="M31.6406 22.6779C30.6681 23.5289 29.7932 24.4853 29.032 25.5294C27.9968 26.7959 26.8279 27.9471 25.5455 28.963C25.2669 29.1823 24.9799 29.3932 24.7013 29.5872C24.5676 29.6853 24.4265 29.7728 24.2792 29.8488C23.0219 29.4337 21.8199 28.8671 20.6998 28.1615C19.9822 27.7228 19.3068 27.2335 18.5893 26.8032C16.6283 25.658 14.41 25.0255 12.1396 24.9641H11.7259C11.861 24.846 12.0045 24.711 12.1396 24.576C13.828 22.4163 16.8587 18.021 18.6906 15.9709C21.029 13.3303 24.5493 13.1785 26.4825 15.1273C27.7116 16.3782 28.755 17.7987 29.5807 19.3455C30.0995 20.4158 30.7126 21.4378 31.4127 22.3995C31.4874 22.4954 31.5692 22.5857 31.6575 22.6694" fill="var(--fill-0, #845EC2)" fill-opacity="0.48"/>
<path id="Vector_4" opacity="0.95" d="M34.4181 24.962C33.4917 27.0469 32.1961 28.9475 30.5939 30.5722C30.4504 30.7157 30.3068 30.8591 30.1549 30.9856C28.2916 30.9318 26.4472 30.5962 24.6845 29.9901L24.2624 29.8467C24.4097 29.7707 24.5508 29.6832 24.6845 29.5852C24.9799 29.3911 25.267 29.1802 25.5287 28.9609C26.8111 27.945 27.98 26.7938 29.0152 25.5273C29.7764 24.4832 30.6513 23.5268 31.6238 22.6758C32.5013 23.4946 33.4289 24.2582 34.4012 24.962" fill="var(--fill-0, #845EC2)" fill-opacity="0.66"/>
<path id="Vector_5" opacity="0.95" d="M4.12811 27.7381C3.99304 27.8394 3.85797 27.9237 3.7229 28.0334L3.27547 28.413L3.08975 28.1684L2.31308 26.9535C2.74927 27.2409 3.22389 27.4653 3.7229 27.62L4.12811 27.7212" fill="var(--fill-0, #845EC2)" fill-opacity="0.66"/>
<path id="Vector_6" opacity="0.95" d="M24.2624 29.8476C24.0262 29.9827 23.7807 30.1011 23.528 30.202C22.5274 30.5567 21.4563 30.6666 20.4044 30.5225C17.8968 30.2499 15.5581 29.1275 13.7775 27.342C13.0346 26.5828 12.4183 25.7391 11.7092 24.963H12.1228C14.3933 25.0244 16.6115 25.6569 18.5725 26.8021C19.2901 27.2324 19.9654 27.7217 20.683 28.1604C21.8032 28.866 23.0051 29.4326 24.2624 29.8476Z" fill="var(--fill-0, #845EC2)" fill-opacity="0.66"/>
<path id="Vector_7" opacity="0.95" d="M11.7092 24.963C10.679 25.9806 9.44863 26.7735 8.096 27.2914C6.84875 27.8367 5.46571 27.9925 4.12827 27.7385C5.39169 26.697 6.84113 25.904 8.39991 25.4017C9.36382 25.1536 10.3515 25.0093 11.3462 24.9714H11.7092" fill="var(--fill-0, #845EC2)" fill-opacity="0.66"/>
<path id="Vector_8" d="M30.1549 30.9865C28.2985 32.747 26.0859 34.0891 23.6663 34.9223C21.2467 35.7556 18.6765 36.0605 16.1289 35.8167C13.5814 35.5728 11.1158 34.7858 8.89852 33.5087C6.68123 32.2315 4.76381 30.4941 3.2756 28.4135L3.72302 28.0338C3.8581 27.9241 3.99317 27.8398 4.12824 27.7385C5.46568 27.9925 6.84872 27.8367 8.09597 27.2914C9.4486 26.7735 10.6789 25.9806 11.7091 24.963C12.4183 25.7391 13.0345 26.5828 13.7774 27.342C15.5581 29.1275 17.8967 30.2499 20.4044 30.5225C21.4562 30.6666 22.5273 30.5567 23.5279 30.202C23.7807 30.1011 24.0261 29.9827 24.2624 29.8476L24.6845 29.9911C26.4472 30.5971 28.2916 30.9327 30.1549 30.9865Z" fill="var(--fill-0, #845EC2)"/>
<g id="Vector_9">
</g>
<path id="Vector_10" d="M2.49039 18.8469C1.70419 19.1279 0.883451 19.3011 0.0506519 19.3615C0.046513 19.2856 0.046513 19.2096 0.0506519 19.1337C0.0506519 18.9312 0.0506519 18.7288 0 18.5347C0 18.3322 0 18.1129 0 17.9104C0 13.1603 1.88824 8.6047 5.24933 5.24584C8.61043 1.88699 13.169 0 17.9223 0C22.6756 0 27.2343 1.88699 30.5954 5.24584C33.9565 8.6047 35.8447 13.1603 35.8447 17.9104V18.4925C35.8447 18.7119 35.8025 18.9312 35.7856 19.1506C35.7897 19.2264 35.7897 19.3025 35.7856 19.3784C34.9423 19.3196 34.1106 19.1494 33.3121 18.8722C33.3627 18.4082 33.3712 17.9357 33.3712 17.9357C33.3745 13.8434 31.751 9.91736 28.8578 7.02128C27.4252 5.58728 25.724 4.44931 23.8513 3.67234C21.9786 2.89537 19.9711 2.49461 17.9435 2.49295C15.9158 2.49129 13.9077 2.88875 12.0337 3.66266C10.1597 4.43656 8.45668 5.57174 7.02173 7.00338C4.12372 9.89472 2.49375 13.8181 2.49039 17.9104C2.49039 17.9104 2.49039 18.366 2.49039 18.8469Z" fill="var(--fill-0, #845EC2)"/>
</g>
</svg>
