<svg preserveAspectRatio="none" width="100%" height="100%" overflow="visible" style="display: block;" viewBox="0 0 190.62 22.8352" fill="none" xmlns="http://www.w3.org/2000/svg">
<g id="Layer 1">
<path id="Vector" d="M188.164 8.60478C187.77 8.6098 187.384 8.4976 187.054 8.28245C186.724 8.06731 186.466 7.75896 186.312 7.39667C186.158 7.03438 186.116 6.63455 186.19 6.24809C186.265 5.86163 186.452 5.50602 186.73 5.22655C187.007 4.94708 187.361 4.7564 187.747 4.67879C188.133 4.60117 188.534 4.64014 188.898 4.79072C189.261 4.9413 189.572 5.19668 189.79 5.52434C190.008 5.85201 190.124 6.23713 190.122 6.63067C190.122 7.15424 189.914 7.65636 189.544 8.02658C189.173 8.3968 188.671 8.60478 188.147 8.60478M188.147 4.15881C187.658 4.15881 187.179 4.30378 186.773 4.5754C186.366 4.84701 186.049 5.23306 185.862 5.68473C185.674 6.1364 185.625 6.63341 185.721 7.11291C185.816 7.5924 186.052 8.03284 186.398 8.37854C186.744 8.72423 187.185 8.95966 187.664 9.05503C188.144 9.15041 188.641 9.10146 189.093 8.91437C189.545 8.72728 189.932 8.41046 190.204 8.00396C190.475 7.59747 190.62 7.11956 190.62 6.63067C190.62 5.97509 190.36 5.34637 189.896 4.8828C189.432 4.41924 188.803 4.15881 188.147 4.15881Z" fill="var(--fill-0, #1E1C21)"/>
<path id="Vector_2" d="M188.24 6.82358H187.691V5.6678H188.24C188.322 5.6579 188.405 5.66546 188.483 5.68998C188.562 5.71451 188.635 5.75543 188.696 5.81004C188.758 5.86466 188.807 5.93174 188.841 6.00683C188.875 6.08193 188.892 6.16334 188.892 6.24569C188.892 6.32804 188.875 6.40945 188.841 6.48455C188.807 6.55964 188.758 6.62671 188.696 6.68133C188.635 6.73595 188.562 6.77687 188.483 6.80139C188.405 6.82591 188.322 6.83348 188.24 6.82358ZM188.189 5.33878H187.277V7.91187H187.691V7.17791H188.383L188.822 7.93718H189.278L188.78 7.05136C189.54 6.70547 189.54 5.36409 188.214 5.36409" fill="var(--fill-0, #1E1C21)"/>
<path id="Vector_3" d="M124.722 11.9451C124.722 8.62118 122.358 6.44459 118.998 6.44459C115.638 6.44459 113.376 8.51994 112.768 11.9451H124.722ZM110.497 13.6999C110.497 8.35965 114.077 4.59703 118.998 4.59703C124.063 4.59703 127.44 8.49463 126.832 13.6661H112.641C112.641 18.0446 115.174 20.9467 119.066 20.9467C121.97 20.9467 124.342 19.3185 124.823 16.8888L126.832 17.3697C126.132 20.5671 122.932 22.8027 119.125 22.8027C114.06 22.8027 110.497 19.0317 110.497 13.6999Z" fill="var(--fill-0, #1E1C21)"/>
<path id="Vector_4" d="M136.093 21.0127C139.639 21.0127 142.231 18.4818 142.231 13.9177V13.3778L137.275 13.9177C133.696 14.3058 131.965 15.7062 131.965 17.8828C131.965 19.8991 133.535 21.0127 136.093 21.0127ZM129.855 17.9419C129.855 14.7867 132.159 12.7366 137.208 12.1967L142.231 11.6568V10.8131C142.231 8.16412 140.179 6.46841 137.309 6.46841C134.439 6.46841 132.379 8.15568 132.126 10.8131L130.116 10.4926C130.597 6.94928 133.594 4.58709 137.309 4.58709C141.395 4.58709 144.307 7.11801 144.307 10.9397V22.5481H142.231V18.8446C141.521 21.2068 138.854 22.8012 135.832 22.8012C132.218 22.8012 129.855 20.9199 129.855 17.9419Z" fill="var(--fill-0, #1E1C21)"/>
<path id="Vector_5" d="M151.247 0.454732H149.137V22.5496H151.247V0.454732Z" fill="var(--fill-0, #1E1C21)"/>
<path id="Vector_6" d="M157.029 17.756V7.42991H154.252V5.67514H157.029V1.72692H159.14V5.67514H163.361V7.42991H159.14V17.6295C159.14 19.8314 160.195 20.9197 161.799 20.9197C162.456 20.909 163.106 20.7775 163.716 20.5316L163.876 22.3876C163.16 22.6634 162.398 22.8036 161.63 22.801C158.954 22.801 157.029 21.1137 157.029 17.7392" fill="var(--fill-0, #1E1C21)"/>
<path id="Vector_7" d="M166.654 0.428536H168.764V8.86491C169.345 7.60248 170.277 6.53364 171.449 5.78576C172.621 5.03788 173.984 4.6425 175.374 4.64672C179.021 4.64672 181.866 7.0764 181.866 10.7462V22.5572H179.756V11.0752C179.784 10.4611 179.683 9.84798 179.459 9.27524C179.236 8.7025 178.895 8.18286 178.458 7.74976C178.022 7.31666 177.499 6.97971 176.924 6.76057C176.35 6.54144 175.735 6.44499 175.121 6.47742C171.415 6.47742 168.764 9.54826 168.764 14.7535V22.5487H166.654V0.428536Z" fill="var(--fill-0, #1E1C21)"/>
<path id="Vector_8" d="M7.66532 22.542V3.24804H0V3.63341e-05H18.9776V3.24804H11.2785V22.542H7.66532Z" fill="var(--fill-0, #1E1C21)"/>
<path id="Vector_9" d="M52.8137 22.5399H49.2259V11.8763C49.2259 9.11759 47.681 7.75934 44.5912 7.75934C41.5015 7.75934 39.9228 9.11759 39.9228 11.8763V22.5399H36.335V11.716C36.335 7.20253 39.0702 4.51133 44.5912 4.51133C50.1123 4.51133 52.8137 7.20253 52.8137 11.716V22.5399Z" fill="var(--fill-0, #1E1C21)"/>
<path id="Vector_10" d="M70.4491 22.5424H55.549V20.079C55.549 20.079 64.5313 8.6983 65.0294 8.08245H55.7854V4.83444H70.2465V7.04477C70.2465 7.04477 62.252 17.1684 60.6395 19.3028H70.4745L70.4491 22.5424Z" fill="var(--fill-0, #1E1C21)"/>
<path id="Vector_11" d="M82.4534 4.54444C82.1241 4.54444 81.7949 4.54444 81.4403 4.54444C75.9193 4.54444 73.1925 7.23565 73.1925 11.7491V22.5392H76.7719V11.8757C76.7719 9.11696 78.3168 7.7587 81.4403 7.7587C81.7787 7.75745 82.1168 7.77434 82.4534 7.80932V4.54444Z" fill="var(--fill-0, #1E1C21)"/>
<path id="Vector_12" d="M20.4381 11.851C20.4381 9.08385 22.1265 7.69185 25.3345 7.69185C28.5425 7.69185 30.1718 9.05854 30.1718 11.8172V12.045H20.4381V11.851ZM29.8678 18.0011C29.2713 19.126 27.7714 19.6884 25.3683 19.6884C22.0815 19.6659 20.4381 18.2907 20.4381 15.563V14.9049H33.5992V11.6232C33.5992 7.20254 30.7374 4.51133 25.3092 4.51133C19.881 4.51133 16.96 7.17723 16.96 11.6232V15.757C16.96 20.1692 19.7206 22.8351 25.3429 22.8351C29.049 22.8351 31.5478 21.6794 32.755 19.9077L29.8678 18.0011Z" fill="var(--fill-0, #1E1C21)"/>
<path id="Vector_13" d="M91.8238 0.174664H93.9428V9.14253H105.373V0.174664H107.492V22.6154H105.373V11.1335H93.9428V22.6154H91.8238V0.174664Z" fill="var(--fill-0, #1E1C21)"/>
</g>
</svg>
