<svg width="285" height="124" viewBox="0 0 285 124" fill="none" xmlns="http://www.w3.org/2000/svg">
<path d="M33.4204 56.2998C34.0866 56.5196 36.4405 55.2624 42.0378 48.1272L44.6838 49.9012C42.6762 52.2601 38.3344 57.326 37.0287 58.7189C35.7229 60.1118 33.2351 63.7743 32.4277 63.4598L25.2303 58.6343C24.8349 58.1425 24.8697 56.9182 25.6041 55.8228C26.2677 54.8331 28.7011 53.5894 29.5831 54.1807C30.4652 54.7721 32.7542 56.0799 33.4204 56.2998Z" fill="#F287D4"/>
<path d="M86.5338 105.236L106.676 117.169L116.904 81.4991L93.5232 80.8609L86.5338 105.236Z" fill="url(#paint0_linear_400_1319)"/>
<path d="M91.8384 66.9493C93.0029 65.9289 93.3483 64.2594 92.6842 62.8607C91.9886 61.3956 90.3691 60.6099 88.7878 60.9702L70.3417 65.1733C68.3922 66.0989 68.5189 70.8072 69.791 73.4865L70.2076 74.3639C71.4798 77.0432 75.0227 80.9007 76.9722 79.9751L91.8384 66.9493Z" fill="#EEA63B"/>
<path d="M77.7039 116.226C78.1508 117.708 77.559 119.307 76.2546 120.141C74.8883 121.015 73.0985 120.823 71.9485 119.68L58.5326 106.341C57.3698 104.522 59.9723 100.597 62.4709 98.9987L63.2892 98.4754C65.7878 96.8773 70.8365 95.4834 71.9993 97.3015L77.7039 116.226Z" fill="#EEA63B"/>
<path d="M9.00863 80.2404L6.79227 77.404C2.51024 71.9241 4.87224 63.8588 11.434 61.5545L14.7398 60.3937C24.3347 57.0242 34.6917 55.9047 44.7913 57.0935C58.6378 58.7233 71.7761 64.7223 82.0094 74.1913C84.8076 76.7807 85.9097 80.7249 84.8588 84.3897L80.8789 98.2694C79.8087 102.002 76.6882 104.786 72.8587 105.426C59.3799 107.677 45.5344 105.67 33.2505 99.6817L32.6806 99.4038C23.4363 94.8977 15.3407 88.3439 9.00863 80.2404Z" fill="#DDEFFD"/>
<path d="M30.2634 56.9614L29.8396 57.5753C22.9548 67.5459 19.6046 79.5338 20.3226 91.6292C16.125 88.3058 12.3231 84.4854 9.00538 80.2395L6.78903 77.4031C2.507 71.9232 4.86898 63.8579 11.4307 61.5536L14.7365 60.3927C19.7525 58.6313 24.9766 57.4848 30.2634 56.9614Z" fill="#EEA63A"/>
<circle cx="41.9337" cy="79.3043" r="9.50126" transform="rotate(-74 41.9337 79.3043)" fill="#62B8FF"/>
<rect x="77.1065" y="103.876" width="27.8484" height="11.0211" rx="3.05258" transform="rotate(-74 77.1065 103.876)" fill="#7A7A7A"/>
<path d="M50.1812 61.587C50.8282 61.8583 53.2732 60.789 59.4116 54.1137L61.9107 56.0893C59.7246 58.2839 54.9998 62.9946 53.5891 64.281C52.1784 65.5674 49.4116 69.0241 48.6313 68.6474L41.8335 63.2736C41.4778 62.7522 41.6083 61.5345 42.4262 60.4999C43.1651 59.5651 45.6884 58.5156 46.5215 59.1742C47.3545 59.8327 49.5342 61.3157 50.1812 61.587Z" fill="#F287D4"/>
<path d="M29.4984 28.8024C30.4363 30.78 32.0915 31.5075 38.1086 32.5528C37.598 33.7396 36.4617 36.0532 36.0015 35.8136C35.4263 35.5141 27.673 32.747 26.497 31.4878C25.321 30.2286 25.1377 12.4756 25.205 11.7416C25.2723 11.0076 27.4218 11.0403 28.0269 11.0136C28.632 10.9869 29.1144 11.3601 29.6672 11.9042C30.22 12.4484 28.5605 26.8249 29.4984 28.8024Z" fill="#F287D4"/>
<path d="M60.2631 1.76271C61.8098 0.0253968 64.6572 0.613912 65.3884 2.82204L83.2068 56.6299C83.938 58.8381 82.0047 61.0097 79.7268 60.5389L24.2186 49.0661C21.9407 48.5953 21.0266 45.8352 22.5733 44.0978L60.2631 1.76271Z" fill="#F1A6DC"/>
<ellipse cx="46.0831" cy="26.9582" rx="2.18783" ry="1.8843" transform="rotate(11.9045 46.0831 26.9582)" fill="#5E4BB2"/>
<ellipse cx="57.6662" cy="29.2706" rx="2.18783" ry="1.8843" transform="rotate(11.9045 57.6662 29.2706)" fill="#5E4BB2"/>
<path d="M49.9714 32.0108L48.1831 31.1345C47.5604 30.8293 46.8118 31.1474 46.5992 31.8075C46.4861 32.1585 46.5501 32.5426 46.771 32.8379L47.251 33.4798C47.5117 33.8284 47.853 34.1085 48.2458 34.296L49.0846 34.6967C49.5886 34.9374 50.1333 35.0814 50.6904 35.1211L51.15 35.154C51.6983 35.1931 52.2464 35.0748 52.7297 34.8129L53.6434 34.3179C54.0195 34.1141 54.2524 33.7193 54.2488 33.2915C54.2431 32.6212 53.6705 32.0961 53.0022 32.1485L51.3644 32.2768C50.8846 32.3144 50.4036 32.2225 49.9714 32.0108Z" fill="#5E4BB2"/>
<path d="M74.3273 36.0023C72.4733 36.7581 71.6642 37.0441 67.601 34.5689C66.9734 34.1866 66.1449 34.4703 65.946 35.1778C65.6243 36.3222 65.3837 37.5389 65.7311 37.6316C66.3576 37.7989 72.1101 40.3218 73.8277 40.1864C75.5453 40.051 87.5122 23.797 87.9579 23.2099C88.4036 22.6229 88.1082 20.8998 87.6797 20.4716C87.2512 20.0435 87.0837 19.9583 86.3086 19.9867C85.5334 20.0151 76.3541 35.1762 74.3273 36.0023Z" fill="#F287D4"/>
<path d="M83.0443 25.3754L81.8173 23.9565C80.4698 22.3981 80.4788 20.0843 81.8386 18.5366C83.3874 16.7738 86.0929 16.6565 87.7883 18.2788L89.1437 19.5757C90.804 21.1643 90.885 23.7904 89.3258 25.4784C87.6204 27.3246 84.6883 27.2765 83.0443 25.3754Z" fill="#F287D4"/>
<path d="M27.9812 15.3179L26.169 14.833C24.1788 14.3005 22.8869 12.381 23.1427 10.3368C23.434 8.00838 25.6067 6.3919 27.9206 6.78191L29.7704 7.0937C32.0364 7.47564 33.5783 9.60294 33.2362 11.8753C32.8621 14.3606 30.4091 15.9676 27.9812 15.3179Z" fill="#F287D4"/>
<path d="M284.247 35.1745L217.964 71.63C210.267 75.8632 201.369 77.3801 192.704 75.936L167.906 71.8029C166.979 71.6485 166.061 71.4518 165.153 71.2136M111.306 98.684H122.057C132.669 98.684 142.825 94.3688 150.191 86.7299L165.153 71.2136M165.153 71.2136L174.34 61.6861C183.364 52.3282 181.917 37.0744 171.392 29.4439C161.25 22.091 146.875 25.037 140.579 35.8667C133.97 47.2333 139.219 61.8114 151.556 66.3568L162.322 70.3232C163.252 70.6655 164.196 70.9626 165.153 71.2136Z" stroke="#EBA2DF" stroke-width="1.95414" stroke-dasharray="3.91 3.91"/>
<defs>
<linearGradient id="paint0_linear_400_1319" x1="90.0233" y1="93.0665" x2="111.687" y2="99.6713" gradientUnits="userSpaceOnUse">
<stop stop-color="#FF9900" stop-opacity="0.51"/>
<stop offset="1" stop-color="#B8DBF0" stop-opacity="0"/>
</linearGradient>
</defs>
</svg>
